<svg width="64" height="64" viewBox="0 0 64 64" xmlns="http://www.w3.org/2000/svg">
  <g fill="none" fill-rule="evenodd">
    <path d="M0 0h64v64H0z"/>
    <path d="M14 28.463c-1.196-.69-2-1.984-2-3.465 0-1.26.583-2.385 1.495-3.118l-.32-1.5c-.23-1.08.46-2.143 1.54-2.373l31.302-6.653c1.08-.23 2.142.46 2.372 1.54l.83 3.913c.23 1.08-.46 2.143-1.54 2.372l-27.376 5.818H48c1.105 0 2 .896 2 2v20c0 1.105-.895 2-2 2H16c-1.105 0-2-.895-2-2V28.463zm5.53-5.345l27.734-5.895-.83-3.913-31.302 6.654.23 1.085c.208-.034.42-.052.638-.052 1.53 0 2.858.86 3.53 2.12zm-.065 3.88c-.692 1.196-1.984 2-3.465 2v2h32v-4H19.465zm28.535 6H16v14h32v-14zm-26-6h2l-4 4h-2l4-4zm6 0h2l-4 4h-2l4-4zm6 0h2l-4 4h-2l4-4zm6 0h2l-4 4h-2l4-4zm6 0h2l-4 4h-2l4-4zM16 27c1.105 0 2-.895 2-2s-.895-2-2-2-2 .895-2 2 .895 2 2 2z" fill="#FFF" fill-rule="nonzero" opacity=".8"/>
  </g>
</svg>
