<?xml version="1.0" encoding="UTF-8" standalone="no"?>
<svg width="24px" height="24px" viewBox="0 0 24 24" version="1.1" xmlns="http://www.w3.org/2000/svg" xmlns:xlink="http://www.w3.org/1999/xlink">
    <!-- Generator: Sketch 45.1 (43504) - http://www.bohemiancoding.com/sketch -->
    <title>ic_file</title>
    <desc>Created with Sketch.</desc>
    <defs>
        <filter x="-0.0%" y="-1.0%" width="100.1%" height="102.1%" filterUnits="objectBoundingBox" id="filter-2">
            <feOffset dx="0" dy="-1" in="SourceAlpha" result="shadowOffsetInner1"></feOffset>
            <feComposite in="shadowOffsetInner1" in2="SourceAlpha" operator="arithmetic" k2="-1" k3="1" result="shadowInnerInner1"></feComposite>
            <feColorMatrix values="0 0 0 0 0.788477891   0 0 0 0 0.788477891   0 0 0 0 0.788477891  0 0 0 1 0" type="matrix" in="shadowInnerInner1"></feColorMatrix>
        </filter>
    </defs>
    <g id="Symbols" stroke="none" stroke-width="1" fill="none" fill-rule="evenodd">
        <g id="action_bar_file_list" transform="translate(-325.000000, -11.000000)">
            <g>
                <g id="Rectangle-2-Copy" fill-opacity="1" fill="black">
                    <use filter="url(#filter-2)" xlink:href="#path-1"></use>
                </g>
                <g id="Tabs" transform="translate(300.000000, 11.000000)" fill-rule="nonzero" fill="#222222">
                    <g id="Group-8" transform="translate(25.000000, 0.000000)">
                        <g id="ic_file" transform="translate(7.000000, 5.000000)">
                            <path d="M0,0 L0,0.5 L0,12.5 L0,13 L0.5,13 L9.5,13 L10,13 L10,12.5 L10,3.5 L10,3.296875 L9.859375,3.140625 L6.859375,0.140625 L6.703125,0 L6.5,0 L0.5,0 L0,0 Z M1,1 L6,1 L6,3.5 L6,4 L6.5,4 L9,4 L9,12 L1,12 L1,1 Z M7,1.71875 L8.28125,3 L7,3 L7,1.71875 Z" id="Shape"></path>
                        </g>
                    </g>
                </g>
            </g>
        </g>
    </g>
</svg>